<svg width="30" height="30" viewBox="0 0 30 30" fill="none" xmlns="http://www.w3.org/2000/svg">
<g clip-path="url(#clip0_565_202)">
<path d="M15 2.5L15.1462 2.50875C15.4253 2.54165 15.6851 2.6676 15.8837 2.86626C16.0824 3.06493 16.2083 3.32473 16.2413 3.60375L16.25 3.75V8.75L16.2563 8.9375C16.301 9.53271 16.5572 10.0923 16.9786 10.515C17.4 10.9378 17.9587 11.1958 18.5538 11.2425L18.75 11.25H23.75L23.8963 11.2587C24.1753 11.2917 24.4351 11.4176 24.6337 11.6163C24.8324 11.8149 24.9583 12.0747 24.9912 12.3538L25 12.5V23.75C25.0001 24.7065 24.6346 25.6269 23.9784 26.3228C23.3222 27.0188 22.4249 27.4376 21.47 27.4938L21.25 27.5H8.75C7.79349 27.5001 6.87311 27.1346 6.17717 26.4784C5.48124 25.8222 5.06237 24.9249 5.00625 23.97L5 23.75V6.25C4.99995 5.29349 5.36541 4.37311 6.0216 3.67717C6.6778 2.98124 7.57513 2.56237 8.53 2.50625L8.75 2.5H15ZM18.75 20H11.25C10.9185 20 10.6005 20.1317 10.3661 20.3661C10.1317 20.6005 10 20.9185 10 21.25C10 21.5815 10.1317 21.8995 10.3661 22.1339C10.6005 22.3683 10.9185 22.5 11.25 22.5H18.75C19.0815 22.5 19.3995 22.3683 19.6339 22.1339C19.8683 21.8995 20 21.5815 20 21.25C20 20.9185 19.8683 20.6005 19.6339 20.3661C19.3995 20.1317 19.0815 20 18.75 20ZM18.75 15H11.25C10.9185 15 10.6005 15.1317 10.3661 15.3661C10.1317 15.6005 10 15.9185 10 16.25C10 16.5815 10.1317 16.8995 10.3661 17.1339C10.6005 17.3683 10.9185 17.5 11.25 17.5H18.75C19.0815 17.5 19.3995 17.3683 19.6339 17.1339C19.8683 16.8995 20 16.5815 20 16.25C20 15.9185 19.8683 15.6005 19.6339 15.3661C19.3995 15.1317 19.0815 15 18.75 15ZM12.5 10H11.25C10.9185 10 10.6005 10.1317 10.3661 10.3661C10.1317 10.6005 10 10.9185 10 11.25C10 11.5815 10.1317 11.8995 10.3661 12.1339C10.6005 12.3683 10.9185 12.5 11.25 12.5H12.5C12.8315 12.5 13.1495 12.3683 13.3839 12.1339C13.6183 11.8995 13.75 11.5815 13.75 11.25C13.75 10.9185 13.6183 10.6005 13.3839 10.3661C13.1495 10.1317 12.8315 10 12.5 10Z" fill="#10271D"/>
<path d="M23.7498 8.75003H18.7498L18.7485 3.74878L23.7498 8.75003Z" fill="#10271D"/>
</g>
<defs>
<clipPath id="clip0_565_202">
<rect width="30" height="30" fill="white"/>
</clipPath>
</defs>
</svg>
