<svg width="30" height="30" viewBox="0 0 30 30" fill="none" xmlns="http://www.w3.org/2000/svg">
<g clip-path="url(#clip0_592_604)">
<path d="M21.25 4.17499C23.1353 5.26356 24.7037 6.82564 25.7998 8.70661C26.8959 10.5876 27.4817 12.7222 27.4993 14.8992C27.5169 17.0761 26.9656 19.2199 25.9 21.1184C24.8345 23.0168 23.2916 24.604 21.4241 25.7229C19.5566 26.8418 17.4292 27.4535 15.2526 27.4976C13.076 27.5416 10.9257 27.0164 9.01444 25.974C7.1032 24.9316 5.49734 23.4081 4.35583 21.5544C3.21433 19.7006 2.57676 17.5809 2.50625 15.405L2.5 15L2.50625 14.595C2.57625 12.4362 3.20443 10.3324 4.32955 8.48873C5.45466 6.64502 7.03832 5.1243 8.92612 4.07484C10.8139 3.02538 12.9414 2.48298 15.1013 2.50053C17.2611 2.51809 19.3795 3.09498 21.25 4.17499ZM18.75 9.99999H11.25L11.1038 10.0087C10.7997 10.0446 10.5193 10.1907 10.3159 10.4195C10.1124 10.6483 10 10.9438 10 11.25L10.0087 11.3962C10.0446 11.7003 10.1907 11.9806 10.4195 12.1841C10.6483 12.3875 10.9438 12.4999 11.25 12.5H15.73L10.3663 17.8662L10.2625 17.9837C10.0682 18.235 9.97688 18.5507 10.007 18.8669C10.0371 19.183 10.1864 19.4759 10.4247 19.6859C10.6629 19.896 10.9721 20.0075 11.2895 19.9978C11.607 19.9881 11.9088 19.8579 12.1337 19.6337L17.5 14.2675V18.75L17.5087 18.8962C17.5464 19.2126 17.7034 19.5027 17.9477 19.7072C18.192 19.9116 18.5052 20.0151 18.8233 19.9965C19.1413 19.9778 19.4402 19.8384 19.6589 19.6067C19.8777 19.375 19.9996 19.0686 20 18.75V11.25L19.9912 11.1037L19.955 10.9175L19.9112 10.7862L19.8438 10.645L19.755 10.5062C19.7181 10.4567 19.6775 10.4099 19.6337 10.3662L19.5212 10.2662L19.4012 10.1825L19.2788 10.1175L19.1413 10.0625L19.0013 10.025L18.8438 10.0037L18.75 9.99999Z" fill="#10271D"/>
</g>
<defs>
<clipPath id="clip0_592_604">
<rect width="30" height="30" fill="white"/>
</clipPath>
</defs>
</svg>
