<svg width="30" height="30" viewBox="0 0 30 30" fill="none" xmlns="http://www.w3.org/2000/svg">
<g clip-path="url(#clip0_526_378)">
<path d="M15.884 2.86623L27.134 14.1162C27.9215 14.9037 27.364 16.25 26.2502 16.25H25.0002V23.75C25.0002 24.7445 24.6051 25.6984 23.9019 26.4016C23.1986 27.1049 22.2448 27.5 21.2502 27.5H20.0002V18.75C20.0003 17.7935 19.6348 16.8731 18.9786 16.1772C18.3224 15.4812 17.4251 15.0623 16.4702 15.0062L16.2502 15H13.7502C12.7557 15 11.8018 15.3951 11.0986 16.0983C10.3953 16.8016 10.0002 17.7554 10.0002 18.75V27.5H8.75023C7.75567 27.5 6.80184 27.1049 6.09858 26.4016C5.39532 25.6984 5.00023 24.7445 5.00023 23.75V16.25H3.75023C2.63773 16.25 2.07898 14.9037 2.86648 14.1162L14.1165 2.86623C14.3509 2.63189 14.6688 2.50024 15.0002 2.50024C15.3317 2.50024 15.6496 2.63189 15.884 2.86623ZM16.2502 17.5C16.5818 17.5 16.8997 17.6317 17.1341 17.8661C17.3685 18.1005 17.5002 18.4185 17.5002 18.75V27.5H12.5002V18.75C12.5003 18.4438 12.6127 18.1483 12.8161 17.9195C13.0196 17.6907 13.2999 17.5445 13.604 17.5087L13.7502 17.5H16.2502Z" fill="#10271D"/>
</g>
<defs>
<clipPath id="clip0_526_378">
<rect width="30" height="30" fill="white"/>
</clipPath>
</defs>
</svg>
