<svg width="48" height="48" viewBox="0 0 48 48" fill="none" xmlns="http://www.w3.org/2000/svg">
<path fill-rule="evenodd" clip-rule="evenodd" d="M23.3696 0.842894C23.0553 1.32632 22.2316 2.60358 21.5391 3.6811C19.6189 6.66884 18.4427 7.69999 16.3413 8.23774C14.8608 8.61654 14.046 8.544 10.3749 7.70623C8.60063 7.30138 7.1149 7.00444 7.07331 7.04648C7.03182 7.08842 7.32775 8.5763 7.73112 10.3528C8.34544 13.0579 8.46483 13.7391 8.46599 14.5453C8.46896 16.4838 7.80447 18.1113 6.45761 19.4646C5.83314 20.092 5.05529 20.656 2.83131 22.0943C1.27414 23.1013 0 23.965 0 24.0138C0 24.0626 1.27414 24.9263 2.83131 25.9333C5.05529 27.3715 5.83314 27.9356 6.45761 28.563C7.80447 29.9163 8.46896 31.5438 8.46599 33.4823C8.46483 34.2885 8.34544 34.9697 7.73112 37.6748C7.32775 39.4513 7.03129 40.9386 7.07214 40.9799C7.1131 41.0213 8.59883 40.7244 10.3737 40.3201C13.0758 39.7045 13.7574 39.5845 14.563 39.5829C16.499 39.5791 18.1257 40.2436 19.4806 41.5919C20.1109 42.2192 20.6621 42.9805 22.0884 45.1937C23.083 46.7371 23.9551 48 24.0265 48C24.0978 48 24.9699 46.7371 25.9646 45.1937C28.1027 41.8758 28.8236 41.06 30.2469 40.3472C32.2657 39.3363 33.5381 39.3388 37.9449 40.3627C39.5749 40.7414 40.9424 41.0178 40.9836 40.977C41.025 40.936 40.7282 39.4496 40.3241 37.6737C39.7089 34.9702 39.5889 34.2883 39.5874 33.4823C39.5835 31.5452 40.2477 29.9177 41.5953 28.5621C42.2222 27.9314 42.9831 27.3799 45.1951 25.9529C46.7378 24.9578 48 24.0845 48 24.0123C48 23.9401 46.7378 23.0674 45.1951 22.0729C42.9826 20.6465 42.2224 20.0958 41.5953 19.4652C40.2482 18.1106 39.584 16.4835 39.5869 14.5453C39.5881 13.7391 39.7075 13.0579 40.3218 10.3528C40.7252 8.5763 41.0222 7.08979 40.9818 7.04945C40.9415 7.0091 39.4558 7.30625 37.6803 7.70983C34.9766 8.32447 34.2957 8.44393 33.4899 8.44509C31.553 8.44806 29.9268 7.78354 28.5723 6.43565C27.9421 5.80852 27.391 5.04742 25.9678 2.83899C24.975 1.29826 24.1128 0.0211143 24.0519 0.000781567C23.9909 -0.0195511 23.6838 0.359357 23.3696 0.842894ZM26.8538 10.134C32.4731 11.2837 36.8361 15.7261 37.9613 21.4436C38.2097 22.7061 38.2106 25.3171 37.963 26.5746C36.8187 32.3863 32.3945 36.8128 26.586 37.9577C25.3323 38.2048 22.7193 38.2045 21.464 37.9571C15.6624 36.8138 11.2332 32.3814 10.0899 26.5746C9.84228 25.3171 9.84323 22.7061 10.0916 21.4436C11.3239 15.1822 16.3492 10.5785 22.7034 9.88998C23.62 9.79065 25.8028 9.919 26.8538 10.134ZM21.5684 11.5155C15.473 12.8015 11.3252 17.8624 11.3252 24.0138C11.3252 31.113 16.931 36.7217 24.0265 36.7217C32.7081 36.7217 38.7549 28.3897 36.1253 20.0504C34.7415 15.6621 30.945 12.3623 26.2562 11.4723C25.0402 11.2416 22.7679 11.2625 21.5684 11.5155Z" fill="#9FD456"/>
</svg>
