<svg width="152" height="48" viewBox="0 0 152 48" fill="none" xmlns="http://www.w3.org/2000/svg">
<path fill-rule="evenodd" clip-rule="evenodd" d="M23.3696 0.842894C23.0553 1.32632 22.2316 2.60358 21.5391 3.6811C19.6189 6.66884 18.4427 7.69999 16.3413 8.23774C14.8608 8.61654 14.046 8.544 10.3749 7.70623C8.60063 7.30138 7.1149 7.00444 7.07331 7.04648C7.03182 7.08842 7.32775 8.5763 7.73112 10.3528C8.34544 13.0579 8.46483 13.7391 8.46599 14.5453C8.46896 16.4838 7.80447 18.1113 6.45761 19.4646C5.83314 20.092 5.05529 20.656 2.83131 22.0943C1.27414 23.1012 0 23.965 0 24.0138C0 24.0626 1.27414 24.9263 2.83131 25.9333C5.05529 27.3715 5.83314 27.9356 6.45761 28.563C7.80447 29.9163 8.46896 31.5438 8.46599 33.4823C8.46483 34.2885 8.34544 34.9697 7.73112 37.6748C7.32775 39.4513 7.03129 40.9386 7.07214 40.9799C7.1131 41.0213 8.59883 40.7244 10.3737 40.3201C13.0758 39.7045 13.7574 39.5845 14.563 39.5829C16.499 39.5791 18.1257 40.2436 19.4806 41.5919C20.1109 42.2192 20.6621 42.9805 22.0884 45.1937C23.083 46.7371 23.9551 48 24.0265 48C24.0978 48 24.9699 46.7371 25.9646 45.1937C28.1027 41.8758 28.8236 41.06 30.2469 40.3472C32.2657 39.3363 33.5381 39.3388 37.9449 40.3627C39.5749 40.7414 40.9424 41.0178 40.9836 40.977C41.025 40.936 40.7282 39.4496 40.3241 37.6737C39.7089 34.9702 39.5889 34.2882 39.5874 33.4823C39.5835 31.5452 40.2477 29.9177 41.5953 28.5621C42.2222 27.9314 42.9831 27.3799 45.1951 25.9529C46.7378 24.9578 48 24.0845 48 24.0123C48 23.9401 46.7378 23.0674 45.1951 22.0729C42.9826 20.6465 42.2224 20.0958 41.5953 19.4652C40.2482 18.1106 39.584 16.4835 39.5869 14.5453C39.5881 13.7391 39.7075 13.0579 40.3218 10.3528C40.7252 8.5763 41.0222 7.08979 40.9818 7.04945C40.9415 7.0091 39.4558 7.30625 37.6803 7.70983C34.9766 8.32447 34.2957 8.44393 33.4899 8.44509C31.553 8.44806 29.9268 7.78354 28.5723 6.43565C27.9421 5.80852 27.391 5.04742 25.9678 2.83899C24.975 1.29826 24.1128 0.0211143 24.0519 0.000781567C23.9909 -0.0195511 23.6838 0.359357 23.3696 0.842894ZM26.8538 10.134C32.4731 11.2837 36.8361 15.7261 37.9613 21.4436C38.2097 22.7061 38.2106 25.3171 37.963 26.5746C36.8187 32.3863 32.3946 36.8128 26.586 37.9577C25.3323 38.2048 22.7193 38.2045 21.464 37.9571C15.6624 36.8138 11.2332 32.3814 10.0899 26.5746C9.84228 25.3171 9.84323 22.7061 10.0916 21.4436C11.3239 15.1822 16.3492 10.5785 22.7034 9.88999C23.62 9.79065 25.8028 9.919 26.8538 10.134ZM21.5684 11.5155C15.473 12.8015 11.3252 17.8624 11.3252 24.0138C11.3252 31.113 16.931 36.7217 24.0265 36.7217C32.7081 36.7217 38.7549 28.3897 36.1253 20.0504C34.7415 15.6621 30.945 12.3623 26.2562 11.4723C25.0402 11.2416 22.7679 11.2625 21.5684 11.5155Z" fill="#9FD456"/>
<path d="M144.703 33.2896V20.1462H147.675V23.0696L147.434 22.6347C147.74 21.6522 148.215 20.9677 148.859 20.5811C149.52 20.1945 150.309 20.0012 151.227 20.0012H152V22.8039H150.864C149.962 22.8039 149.238 23.0857 148.69 23.6495C148.142 24.1971 147.869 24.9703 147.869 25.9689V33.2896H144.703Z" fill="white"/>
<path d="M134.675 33.5795C133.757 33.5795 132.96 33.4265 132.283 33.1204C131.607 32.8144 131.083 32.3795 130.713 31.8158C130.342 31.2359 130.157 30.5675 130.157 29.8104C130.157 29.0856 130.318 28.4413 130.64 27.8776C130.962 27.2977 131.462 26.8145 132.138 26.428C132.815 26.0414 133.668 25.7676 134.699 25.6065L139 24.9058V27.3219L135.303 27.9501C134.675 28.0628 134.208 28.2642 133.902 28.5541C133.596 28.844 133.443 29.2225 133.443 29.6896C133.443 30.1406 133.612 30.503 133.95 30.7769C134.305 31.0346 134.739 31.1634 135.255 31.1634C135.915 31.1634 136.495 31.0265 136.994 30.7527C137.51 30.4628 137.904 30.0682 138.178 29.5688C138.468 29.0695 138.613 28.5219 138.613 27.9259V24.5434C138.613 23.9797 138.388 23.5126 137.937 23.1421C137.502 22.7555 136.922 22.5623 136.197 22.5623C135.521 22.5623 134.917 22.7475 134.385 23.118C133.87 23.4723 133.491 23.9475 133.25 24.5434L130.664 23.2871C130.922 22.5945 131.325 21.9985 131.872 21.4992C132.436 20.9838 133.096 20.5811 133.854 20.2912C134.611 20.0012 135.432 19.8563 136.318 19.8563C137.397 19.8563 138.347 20.0576 139.169 20.4603C139.99 20.8469 140.627 21.3945 141.078 22.1032C141.545 22.7958 141.778 23.6092 141.778 24.5434V33.2896H138.782V31.0426L139.459 30.9943C139.121 31.5581 138.718 32.0332 138.251 32.4198C137.784 32.7902 137.252 33.0802 136.656 33.2896C136.06 33.4829 135.4 33.5795 134.675 33.5795Z" fill="white"/>
<path d="M126.747 33.4345C125.265 33.4345 124.114 33.0319 123.292 32.2265C122.487 31.405 122.084 30.2534 122.084 28.7715V22.973H119.813V20.1462H120.055C120.699 20.1462 121.198 19.9771 121.553 19.6388C121.907 19.3006 122.084 18.8093 122.084 18.165V17.1503H125.249V20.1462H128.269V22.973H125.249V28.6024C125.249 29.0373 125.322 29.4078 125.467 29.7138C125.628 30.0198 125.869 30.2534 126.191 30.4145C126.53 30.5755 126.956 30.6561 127.472 30.6561C127.585 30.6561 127.714 30.648 127.858 30.6319C128.02 30.6158 128.173 30.5997 128.318 30.5836V33.2896C128.092 33.3218 127.834 33.354 127.544 33.3862C127.254 33.4184 126.989 33.4345 126.747 33.4345Z" fill="white"/>
<path d="M111.805 33.5795C110.661 33.5795 109.598 33.3701 108.616 32.9513C107.649 32.5325 106.812 31.9527 106.103 31.2118C105.41 30.4547 104.903 29.5769 104.581 28.5782L107.311 27.3944C107.746 28.4252 108.374 29.2386 109.195 29.8346C110.017 30.4145 110.943 30.7044 111.974 30.7044C112.554 30.7044 113.053 30.6158 113.472 30.4386C113.907 30.2453 114.237 29.9876 114.462 29.6655C114.704 29.3433 114.825 28.9568 114.825 28.5058C114.825 27.9742 114.664 27.5393 114.342 27.2011C114.036 26.8467 113.568 26.5729 112.94 26.3796L109.485 25.2682C108.084 24.8334 107.029 24.181 106.32 23.3112C105.612 22.4415 105.257 21.4187 105.257 20.2428C105.257 19.212 105.507 18.3019 106.006 17.5127C106.522 16.7235 107.23 16.1114 108.132 15.6765C109.05 15.2255 110.097 15 111.273 15C112.352 15 113.343 15.1933 114.245 15.5799C115.147 15.9503 115.92 16.4738 116.564 17.1503C117.225 17.8107 117.716 18.5919 118.038 19.4939L115.332 20.7019C114.978 19.7999 114.446 19.1073 113.738 18.6241C113.029 18.1248 112.207 17.8751 111.273 17.8751C110.726 17.8751 110.242 17.9718 109.824 18.165C109.405 18.3422 109.075 18.5999 108.833 18.9382C108.607 19.2603 108.495 19.6469 108.495 20.0979C108.495 20.5972 108.656 21.0401 108.978 21.4267C109.3 21.7972 109.791 22.0871 110.452 22.2965L113.762 23.3354C115.195 23.8025 116.266 24.4468 116.975 25.2682C117.7 26.0897 118.062 27.1045 118.062 28.3125C118.062 29.3433 117.797 30.2534 117.265 31.0426C116.733 31.8319 116.001 32.452 115.066 32.903C114.132 33.354 113.045 33.5795 111.805 33.5795Z" fill="white"/>
<path d="M86.4963 33.2896V20.1462H89.4681V22.7314L89.2265 22.2723C89.5325 21.4831 90.0318 20.8871 90.7244 20.4845C91.4331 20.0657 92.2546 19.8563 93.1888 19.8563C94.1552 19.8563 95.0089 20.0657 95.7498 20.4845C96.5069 20.9032 97.0948 21.4911 97.5135 22.2482C97.9323 22.9891 98.1417 23.8508 98.1417 24.8334V33.2896H94.9767V25.5823C94.9767 25.0025 94.8639 24.5032 94.6384 24.0844C94.4129 23.6656 94.0989 23.3435 93.6962 23.118C93.3096 22.8764 92.8506 22.7555 92.319 22.7555C91.8036 22.7555 91.3445 22.8764 90.9419 23.118C90.5392 23.3435 90.2251 23.6656 89.9996 24.0844C89.7741 24.5032 89.6614 25.0025 89.6614 25.5823V33.2896H86.4963Z" fill="white"/>
<path d="M76.8617 33.5795C75.847 33.5795 74.9611 33.354 74.2041 32.903C73.4631 32.452 72.8913 31.8238 72.4887 31.0185C72.1021 30.2131 71.9088 29.2708 71.9088 28.1917V20.1462H75.0738V27.9259C75.0738 28.4735 75.1785 28.9568 75.3879 29.3755C75.6134 29.7782 75.9275 30.1004 76.3302 30.342C76.749 30.5675 77.2161 30.6802 77.7315 30.6802C78.2469 30.6802 78.706 30.5675 79.1087 30.342C79.5113 30.1004 79.8254 29.7702 80.0509 29.3514C80.2764 28.9326 80.3892 28.4333 80.3892 27.8534V20.1462H83.5542V33.2896H80.5583V30.7044L80.8241 31.1634C80.518 31.9688 80.0106 32.5728 79.3019 32.9755C78.6093 33.3781 77.7959 33.5795 76.8617 33.5795Z" fill="white"/>
<path d="M63.224 33.5795C62.0804 33.5795 61.0173 33.3701 60.0348 32.9513C59.0684 32.5325 58.2308 31.9527 57.5221 31.2118C56.8295 30.4547 56.3221 29.5769 56 28.5782L58.7301 27.3944C59.165 28.4252 59.7932 29.2386 60.6147 29.8346C61.4361 30.4145 62.3623 30.7044 63.3931 30.7044C63.973 30.7044 64.4723 30.6158 64.8911 30.4386C65.326 30.2453 65.6562 29.9876 65.8817 29.6655C66.1233 29.3433 66.2441 28.9568 66.2441 28.5058C66.2441 27.9742 66.083 27.5393 65.7609 27.2011C65.4548 26.8467 64.9877 26.5729 64.3596 26.3796L60.9046 25.2682C59.5033 24.8334 58.4483 24.181 57.7396 23.3112C57.0309 22.4415 56.6765 21.4187 56.6765 20.2428C56.6765 19.212 56.9262 18.3019 57.4255 17.5127C57.9409 16.7235 58.6496 16.1114 59.5516 15.6765C60.4697 15.2255 61.5167 15 62.6925 15C63.7717 15 64.7622 15.1933 65.6642 15.5799C66.5662 15.9503 67.3394 16.4738 67.9836 17.1503C68.644 17.8107 69.1353 18.5919 69.4574 19.4939L66.7515 20.7019C66.3971 19.7999 65.8656 19.1073 65.1569 18.6241C64.4482 18.1248 63.6267 17.8751 62.6925 17.8751C62.1448 17.8751 61.6616 17.9718 61.2428 18.165C60.8241 18.3422 60.4939 18.5999 60.2523 18.9382C60.0268 19.2603 59.914 19.6469 59.914 20.0979C59.914 20.5972 60.0751 21.0401 60.3972 21.4267C60.7194 21.7972 61.2106 22.0871 61.871 22.2965L65.181 23.3354C66.6146 23.8025 67.6857 24.4468 68.3944 25.2682C69.1192 26.0897 69.4816 27.1045 69.4816 28.3125C69.4816 29.3433 69.2158 30.2534 68.6843 31.0426C68.1528 31.8319 67.4199 32.452 66.4857 32.903C65.5515 33.354 64.4643 33.5795 63.224 33.5795Z" fill="white"/>
</svg>
