<svg width="30" height="30" viewBox="0 0 30 30" fill="none" xmlns="http://www.w3.org/2000/svg">
<g clip-path="url(#clip0_514_1058)">
<path d="M14.9998 3.0554e-07C16.229 -0.000383959 17.431 0.361695 18.4555 1.04094C19.48 1.72019 20.2814 2.68644 20.7595 3.81882C21.2377 4.95121 21.3713 6.19944 21.1437 7.40737C20.9161 8.6153 20.3373 9.7293 19.4798 10.61L19.4648 10.625C20.3121 11.4905 20.8897 12.5836 21.1273 13.7712L21.1498 13.8975L21.4636 13.8375C21.5886 13.8167 21.7136 13.7996 21.8386 13.7863L22.2186 13.7563L22.4998 13.75C23.6799 13.7501 24.8358 14.0844 25.8338 14.714C26.8319 15.3437 27.6313 16.243 28.1396 17.308C28.6478 18.373 28.8442 19.5601 28.706 20.732C28.5678 21.904 28.1006 23.0128 27.3585 23.9304C26.6164 24.8479 25.6298 25.5366 24.5126 25.9168C23.3955 26.2969 22.1935 26.3531 21.0458 26.0787C19.8981 25.8043 18.8515 25.2106 18.0271 24.3663C17.2027 23.5219 16.6342 22.4614 16.3873 21.3075L16.3473 21.1025L16.0473 21.1625C15.8173 21.2013 15.5853 21.2272 15.3523 21.24L14.9998 21.25C14.644 21.25 14.294 21.2208 13.9498 21.1625L13.6511 21.1025L13.6461 21.1337C13.4434 22.2317 12.9502 23.2552 12.218 24.098C11.4858 24.9408 10.5411 25.5721 9.48232 25.9262L9.20732 26.0112C8.30167 26.2681 7.34969 26.3171 6.42247 26.1545C5.49524 25.9919 4.61672 25.6219 3.8525 25.0723C3.08828 24.5226 2.4581 23.8074 2.00901 22.98C1.55992 22.1527 1.30352 21.2346 1.25896 20.2943C1.2144 19.3539 1.38283 18.4157 1.75166 17.5496C2.1205 16.6835 2.68023 15.9119 3.38904 15.2924C4.09786 14.6729 4.93746 14.2216 5.84515 13.972C6.75285 13.7225 7.70519 13.6812 8.63107 13.8513L8.84732 13.8962L8.87107 13.7688C9.10857 12.5813 9.68732 11.4887 10.5348 10.6237L10.4723 10.5587C9.50788 9.54188 8.91161 8.23141 8.77857 6.83625L8.75607 6.53125L8.74982 6.25C8.74982 4.5924 9.4083 3.00269 10.5804 1.83058C11.7525 0.658481 13.3422 3.0554e-07 14.9998 3.0554e-07ZM22.4998 18.75C22.1683 18.75 21.8504 18.8817 21.6159 19.1161C21.3815 19.3505 21.2498 19.6685 21.2498 20V20.0125C21.2498 20.344 21.3815 20.662 21.6159 20.8964C21.8504 21.1308 22.1683 21.2625 22.4998 21.2625C22.8313 21.2625 23.1493 21.1308 23.3837 20.8964C23.6181 20.662 23.7498 20.344 23.7498 20.0125V20C23.7498 19.6685 23.6181 19.3505 23.3837 19.1161C23.1493 18.8817 22.8313 18.75 22.4998 18.75ZM7.49982 18.75C7.1683 18.75 6.85036 18.8817 6.61594 19.1161C6.38152 19.3505 6.24982 19.6685 6.24982 20V20.0125C6.24982 20.344 6.38152 20.662 6.61594 20.8964C6.85036 21.1308 7.1683 21.2625 7.49982 21.2625C7.83134 21.2625 8.14928 21.1308 8.3837 20.8964C8.61812 20.662 8.74982 20.344 8.74982 20.0125V20C8.74982 19.6685 8.61812 19.3505 8.3837 19.1161C8.14928 18.8817 7.83134 18.75 7.49982 18.75ZM14.9998 12.5063C13.6248 12.5063 12.5123 13.62 12.5123 14.9937V15.0188C12.5123 15.6785 12.7744 16.3112 13.2409 16.7777C13.7074 17.2442 14.3401 17.5063 14.9998 17.5063C15.6595 17.5063 16.2923 17.2442 16.7587 16.7777C17.2252 16.3112 17.4873 15.6785 17.4873 15.0188V14.9937C17.4873 14.334 17.2252 13.7013 16.7587 13.2348C16.2923 12.7683 15.6595 12.5063 14.9998 12.5063ZM14.9998 5C14.6683 5 14.3504 5.1317 14.1159 5.36612C13.8815 5.60054 13.7498 5.91848 13.7498 6.25V6.2625C13.7498 6.59402 13.8815 6.91196 14.1159 7.14638C14.3504 7.3808 14.6683 7.5125 14.9998 7.5125C15.3313 7.5125 15.6493 7.3808 15.8837 7.14638C16.1181 6.91196 16.2498 6.59402 16.2498 6.2625V6.25C16.2498 5.91848 16.1181 5.60054 15.8837 5.36612C15.6493 5.1317 15.3313 5 14.9998 5Z" fill="#10271D"/>
</g>
<defs>
<clipPath id="clip0_514_1058">
<rect width="30" height="30" fill="white"/>
</clipPath>
</defs>
</svg>
