<svg width="24" height="24" viewBox="0 0 24 24" fill="none" xmlns="http://www.w3.org/2000/svg">
<g clip-path="url(#clip0_2012_101)">
<path d="M13 2L13.018 2.001L13.034 2.002L13.117 2.007L13.128 2.009H13.139L13.177 2.018L13.229 2.026L13.245 2.032L13.256 2.033L13.285 2.044L13.337 2.058L13.356 2.067L13.371 2.071L13.399 2.085L13.439 2.102L13.46 2.114L13.482 2.124L13.505 2.139L13.536 2.156L13.57 2.18L13.588 2.191L13.601 2.203L13.625 2.22L13.663 2.254L13.685 2.271L13.693 2.281L13.707 2.293L13.743 2.334L13.769 2.361L13.775 2.37C13.895 2.517 13.971 2.692 13.993 2.883L13.994 2.895L13.996 2.936L14 3V9H19C19.1753 8.99996 19.3475 9.04598 19.4993 9.13345C19.6512 9.22092 19.7774 9.34677 19.8654 9.49839C19.9533 9.65001 19.9998 9.82208 20.0003 9.99734C20.0007 10.1726 19.9551 10.3449 19.868 10.497L19.808 10.588L11.808 21.588C11.24 22.371 10 21.968 10 21V15H5.00001C4.82474 15 4.65254 14.954 4.50067 14.8666C4.34879 14.7791 4.22257 14.6532 4.13466 14.5016C4.04675 14.35 4.00023 14.1779 3.99976 14.0027C3.99929 13.8274 4.0449 13.6551 4.13201 13.503L4.19201 13.412L12.192 2.412L12.202 2.399L12.22 2.375L12.253 2.337L12.271 2.315L12.28 2.307L12.293 2.293L12.333 2.257L12.361 2.231L12.369 2.225C12.4862 2.12908 12.6237 2.06104 12.771 2.026L12.782 2.025L12.809 2.02L12.883 2.007L12.894 2.006L12.935 2.004L13 2Z" fill="#10271D"/>
</g>
<defs>
<clipPath id="clip0_2012_101">
<rect width="24" height="24" fill="white"/>
</clipPath>
</defs>
</svg>
