<svg width="30" height="30" viewBox="0 0 30 30" fill="none" xmlns="http://www.w3.org/2000/svg">
<g clip-path="url(#clip0_8_125)">
<path d="M16.25 2.5L16.2725 2.50125L16.2925 2.5025L16.3963 2.50875L16.41 2.51125H16.4238L16.4713 2.5225L16.5363 2.5325L16.5563 2.54L16.57 2.54125L16.6063 2.555L16.6713 2.5725L16.695 2.58375L16.7138 2.58875L16.7488 2.60625L16.7988 2.6275L16.825 2.6425L16.8525 2.655L16.8813 2.67375L16.92 2.695L16.9625 2.725L16.985 2.73875L17.0013 2.75375L17.0313 2.775L17.0788 2.8175L17.1063 2.83875L17.1163 2.85125L17.1338 2.86625L17.1788 2.9175L17.2113 2.95125L17.2188 2.9625C17.3688 3.14625 17.4638 3.365 17.4913 3.60375L17.4925 3.61875L17.495 3.67L17.5 3.75V11.25H23.75C23.9691 11.2499 24.1843 11.3075 24.3742 11.4168C24.564 11.5262 24.7218 11.6835 24.8317 11.873C24.9416 12.0625 24.9997 12.2776 25.0003 12.4967C25.0009 12.7158 24.9439 12.9311 24.835 13.1213L24.76 13.235L14.76 26.985C14.05 27.9637 12.5 27.46 12.5 26.25V18.75H6.25001C6.03093 18.7501 5.81568 18.6925 5.62583 18.5832C5.43599 18.4738 5.27822 18.3165 5.16832 18.127C5.05843 17.9375 5.00028 17.7224 4.9997 17.5033C4.99912 17.2842 5.05612 17.0689 5.16501 16.8787L5.24001 16.765L15.24 3.015L15.2525 2.99875L15.275 2.96875L15.3163 2.92125L15.3388 2.89375L15.35 2.88375L15.3663 2.86625L15.4163 2.82125L15.4513 2.78875L15.4613 2.78125C15.6078 2.66135 15.7796 2.5763 15.9638 2.5325L15.9775 2.53125L16.0113 2.525L16.1038 2.50875L16.1175 2.5075L16.1688 2.505L16.25 2.5Z" fill="#10271D"/>
</g>
<defs>
<clipPath id="clip0_8_125">
<rect width="30" height="30" fill="white"/>
</clipPath>
</defs>
</svg>
