<svg width="32" height="32" viewBox="0 0 32 32" fill="none" xmlns="http://www.w3.org/2000/svg">
<g clip-path="url(#clip0_2012_689)">
<path d="M6.66667 5.33301H12L14.6667 11.9997L11.3333 13.9997C12.7613 16.895 15.1046 19.2384 18 20.6663L20 17.333L26.6667 19.9997V25.333C26.6667 26.0403 26.3857 26.7185 25.8856 27.2186C25.3855 27.7187 24.7072 27.9997 24 27.9997C18.799 27.6836 13.8935 25.475 10.2091 21.7906C6.52467 18.1061 4.31607 13.2007 4 7.99967C4 7.29243 4.28095 6.61415 4.78105 6.11406C5.28115 5.61396 5.95942 5.33301 6.66667 5.33301Z" stroke="#10271D" stroke-width="2" stroke-linecap="round" stroke-linejoin="round"/>
<path d="M20 9.33301C20.7072 9.33301 21.3855 9.61396 21.8856 10.1141C22.3857 10.6142 22.6667 11.2924 22.6667 11.9997" stroke="#10271D" stroke-width="2" stroke-linecap="round" stroke-linejoin="round"/>
<path d="M20 4C22.1217 4 24.1566 4.84286 25.6569 6.34315C27.1571 7.84344 28 9.87827 28 12" stroke="#10271D" stroke-width="2" stroke-linecap="round" stroke-linejoin="round"/>
</g>
<defs>
<clipPath id="clip0_2012_689">
<rect width="32" height="32" fill="white"/>
</clipPath>
</defs>
</svg>
