<svg width="32" height="32" viewBox="0 0 32 32" fill="none" xmlns="http://www.w3.org/2000/svg">
<g clip-path="url(#clip0_2012_702)">
<path d="M12 14.667C12 15.7279 12.4214 16.7453 13.1716 17.4954C13.9217 18.2456 14.9391 18.667 16 18.667C17.0609 18.667 18.0783 18.2456 18.8284 17.4954C19.5786 16.7453 20 15.7279 20 14.667C20 13.6061 19.5786 12.5887 18.8284 11.8386C18.0783 11.0884 17.0609 10.667 16 10.667C14.9391 10.667 13.9217 11.0884 13.1716 11.8386C12.4214 12.5887 12 13.6061 12 14.667Z" stroke="#10271D" stroke-width="2" stroke-linecap="round" stroke-linejoin="round"/>
<path d="M23.5427 22.2089L17.8854 27.8663C17.3854 28.3658 16.7075 28.6464 16.0007 28.6464C15.2939 28.6464 14.6161 28.3658 14.116 27.8663L8.45738 22.2089C6.96567 20.7172 5.94983 18.8165 5.5383 16.7474C5.12676 14.6783 5.33803 12.5336 6.14538 10.5846C6.95273 8.63554 8.31991 6.96966 10.074 5.79762C11.8281 4.62558 13.8904 4 16 4C18.1097 4 20.172 4.62558 21.9261 5.79762C23.6802 6.96966 25.0474 8.63554 25.8547 10.5846C26.6621 12.5336 26.8733 14.6783 26.4618 16.7474C26.0503 18.8165 25.0344 20.7172 23.5427 22.2089Z" stroke="#10271D" stroke-width="2" stroke-linecap="round" stroke-linejoin="round"/>
</g>
<defs>
<clipPath id="clip0_2012_702">
<rect width="32" height="32" fill="white"/>
</clipPath>
</defs>
</svg>
