<svg width="32" height="32" viewBox="0 0 32 32" fill="none" xmlns="http://www.w3.org/2000/svg">
<g clip-path="url(#clip0_2012_696)">
<path d="M4 9.33366C4 8.62641 4.28095 7.94814 4.78105 7.44804C5.28115 6.94794 5.95942 6.66699 6.66667 6.66699H25.3333C26.0406 6.66699 26.7189 6.94794 27.219 7.44804C27.719 7.94814 28 8.62641 28 9.33366V22.667C28 23.3742 27.719 24.0525 27.219 24.5526C26.7189 25.0527 26.0406 25.3337 25.3333 25.3337H6.66667C5.95942 25.3337 5.28115 25.0527 4.78105 24.5526C4.28095 24.0525 4 23.3742 4 22.667V9.33366Z" stroke="#10271D" stroke-width="2" stroke-linecap="round" stroke-linejoin="round"/>
<path d="M4 9.33301L16 17.333L28 9.33301" stroke="#10271D" stroke-width="2" stroke-linecap="round" stroke-linejoin="round"/>
</g>
<defs>
<clipPath id="clip0_2012_696">
<rect width="32" height="32" fill="white"/>
</clipPath>
</defs>
</svg>
