<svg width="30" height="30" viewBox="0 0 30 30" fill="none" xmlns="http://www.w3.org/2000/svg">
<path d="M14.2202 28.5C6.78022 28.5 0.720215 22.44 0.720215 15C0.720215 7.56 6.78022 1.5 14.2202 1.5C17.7902 1.5 21.1502 2.88 23.7002 5.37C24.1202 5.79 24.1202 6.45 23.7002 6.87C23.2802 7.29 22.6202 7.29 22.2002 6.87C20.0702 4.77 17.2202 3.6 14.2202 3.6C7.95022 3.6 2.85021 8.7 2.85021 14.97C2.85021 21.24 7.95022 26.34 14.2202 26.34C20.4902 26.34 25.5902 21.24 25.5902 14.97C25.5902 13.11 25.1702 11.34 24.3002 9.72C24.0302 9.21 24.2402 8.55 24.7502 8.28C25.2602 8.01 25.9202 8.22 26.1902 8.73C27.1802 10.65 27.7202 12.81 27.7202 14.97C27.7202 22.44 21.6602 28.5 14.2202 28.5Z" fill="#9FD456"/>
<path d="M28.7103 3.93001C28.2603 4.20001 27.2103 4.80001 26.7603 5.04001C26.0103 5.46001 24.9303 6.18001 24.2103 6.63001C23.6103 7.02001 22.6203 7.71001 22.0203 8.10001C21.3603 8.58001 20.5203 9.18001 19.8903 9.69001C17.0703 11.88 14.3103 14.34 12.0003 17.13C10.8003 15.69 9.45029 14.37 7.92029 13.29C7.20029 12.81 6.45029 13.65 6.90029 14.37C8.13029 16.32 8.55029 17.34 9.45029 19.68C9.69029 20.34 9.99029 21.24 10.5303 21.75C10.7703 21.99 11.1003 22.23 11.4003 22.32C12.6903 22.77 13.6203 22.23 14.2203 21.15C14.4903 20.67 14.7603 20.13 15.0603 19.65C15.4203 19.08 15.8403 18.42 16.2003 17.85C17.8203 15.48 19.7103 13.23 21.7203 11.16C22.2003 10.68 22.8003 10.08 23.2803 9.60001C23.7903 9.12001 24.6603 8.31001 25.1703 7.86001C25.5303 7.53001 26.4603 6.75001 26.8503 6.42001C27.5103 5.85001 28.4703 5.10001 29.1603 4.56001C29.4903 4.23001 29.1003 3.69001 28.7103 3.93001Z" fill="#10271D"/>
</svg>
