<svg width="30" height="30" viewBox="0 0 30 30" fill="none" xmlns="http://www.w3.org/2000/svg">
<g clip-path="url(#clip0_2012_242)">
<path d="M6.25 26.25V6.25C6.25 5.58696 6.51339 4.95107 6.98223 4.48223C7.45107 4.01339 8.08696 3.75 8.75 3.75H21.25C21.913 3.75 22.5489 4.01339 23.0178 4.48223C23.4866 4.95107 23.75 5.58696 23.75 6.25V26.25L20 23.75L17.5 26.25L15 23.75L12.5 26.25L10 23.75L6.25 26.25Z" stroke="#10271D" stroke-width="2" stroke-linecap="round" stroke-linejoin="round"/>
<path d="M17.5 10H14.375C13.8777 10 13.4008 10.1975 13.0492 10.5492C12.6975 10.9008 12.5 11.3777 12.5 11.875C12.5 12.3723 12.6975 12.8492 13.0492 13.2008C13.4008 13.5525 13.8777 13.75 14.375 13.75H15.625C16.1223 13.75 16.5992 13.9475 16.9508 14.2992C17.3025 14.6508 17.5 15.1277 17.5 15.625C17.5 16.1223 17.3025 16.5992 16.9508 16.9508C16.5992 17.3025 16.1223 17.5 15.625 17.5H12.5M15 17.5V19.375M15 8.125V10" stroke="#10271D" stroke-width="2" stroke-linecap="round" stroke-linejoin="round"/>
</g>
<defs>
<clipPath id="clip0_2012_242">
<rect width="30" height="30" fill="white"/>
</clipPath>
</defs>
</svg>
