<svg width="30" height="30" viewBox="0 0 30 30" fill="none" xmlns="http://www.w3.org/2000/svg">
<g clip-path="url(#clip0_2012_230)">
<path d="M6.25 15H3.75L15 3.75L26.25 15H23.75" stroke="#10271D" stroke-width="2" stroke-linecap="round" stroke-linejoin="round"/>
<path d="M6.25 15V23.75C6.25 24.413 6.51339 25.0489 6.98223 25.5178C7.45107 25.9866 8.08696 26.25 8.75 26.25H21.25C21.913 26.25 22.5489 25.9866 23.0178 25.5178C23.4866 25.0489 23.75 24.413 23.75 23.75V15" stroke="#10271D" stroke-width="2" stroke-linecap="round" stroke-linejoin="round"/>
<path d="M11.25 26.25V18.75C11.25 18.087 11.5134 17.4511 11.9822 16.9822C12.4511 16.5134 13.087 16.25 13.75 16.25H16.25C16.913 16.25 17.5489 16.5134 18.0178 16.9822C18.4866 17.4511 18.75 18.087 18.75 18.75V26.25" stroke="#10271D" stroke-width="2" stroke-linecap="round" stroke-linejoin="round"/>
</g>
<defs>
<clipPath id="clip0_2012_230">
<rect width="30" height="30" fill="white"/>
</clipPath>
</defs>
</svg>
