<svg width="30" height="30" viewBox="0 0 30 30" fill="none" xmlns="http://www.w3.org/2000/svg">
<g clip-path="url(#clip0_2012_214)">
<path d="M3.75 8.75C3.75 8.08696 4.01339 7.45107 4.48223 6.98223C4.95107 6.51339 5.58696 6.25 6.25 6.25H23.75C24.413 6.25 25.0489 6.51339 25.5178 6.98223C25.9866 7.45107 26.25 8.08696 26.25 8.75V21.25C26.25 21.913 25.9866 22.5489 25.5178 23.0178C25.0489 23.4866 24.413 23.75 23.75 23.75H6.25C5.58696 23.75 4.95107 23.4866 4.48223 23.0178C4.01339 22.5489 3.75 21.913 3.75 21.25V8.75Z" stroke="#10271D" stroke-width="2" stroke-linecap="round" stroke-linejoin="round"/>
<path d="M3.75 8.75L15 16.25L26.25 8.75" stroke="#10271D" stroke-width="2" stroke-linecap="round" stroke-linejoin="round"/>
</g>
<defs>
<clipPath id="clip0_2012_214">
<rect width="30" height="30" fill="white"/>
</clipPath>
</defs>
</svg>
