<svg width="30" height="30" viewBox="0 0 30 30" fill="none" xmlns="http://www.w3.org/2000/svg">
<g clip-path="url(#clip0_2012_199)">
<path d="M10 8.75C10 10.0761 10.5268 11.3479 11.4645 12.2855C12.4021 13.2232 13.6739 13.75 15 13.75C16.3261 13.75 17.5979 13.2232 18.5355 12.2855C19.4732 11.3479 20 10.0761 20 8.75C20 7.42392 19.4732 6.15215 18.5355 5.21447C17.5979 4.27678 16.3261 3.75 15 3.75C13.6739 3.75 12.4021 4.27678 11.4645 5.21447C10.5268 6.15215 10 7.42392 10 8.75Z" stroke="#10271D" stroke-width="2" stroke-linecap="round" stroke-linejoin="round"/>
<path d="M7.5 26.25V23.75C7.5 22.4239 8.02678 21.1521 8.96447 20.2145C9.90215 19.2768 11.1739 18.75 12.5 18.75H17.5C18.8261 18.75 20.0979 19.2768 21.0355 20.2145C21.9732 21.1521 22.5 22.4239 22.5 23.75V26.25" stroke="#10271D" stroke-width="2" stroke-linecap="round" stroke-linejoin="round"/>
</g>
<defs>
<clipPath id="clip0_2012_199">
<rect width="30" height="30" fill="white"/>
</clipPath>
</defs>
</svg>
