<svg width="30" height="30" viewBox="0 0 30 30" fill="none" xmlns="http://www.w3.org/2000/svg">
<g clip-path="url(#clip0_2012_420)">
<path d="M11.25 3.75C11.4741 3.74994 11.6941 3.81012 11.887 3.92426C12.0798 4.03839 12.2385 4.20227 12.3462 4.39875L12.41 4.53625L14.91 10.7862C15.0107 11.0377 15.027 11.3151 14.9564 11.5766C14.8859 11.8381 14.7323 12.0696 14.5187 12.2362L14.3938 12.3213L12.3012 13.5763L12.38 13.705C13.3759 15.2862 14.7138 16.6241 16.295 17.62L16.4225 17.6975L17.6787 15.6075C17.818 15.3751 18.0289 15.1942 18.2798 15.0921C18.5308 14.99 18.8081 14.9721 19.07 15.0413L19.2138 15.09L25.4638 17.59C25.6719 17.673 25.8538 17.8105 25.9906 17.9879C26.1274 18.1654 26.214 18.3764 26.2412 18.5987L26.25 18.75V23.75C26.25 25.8212 24.5713 27.5 22.425 27.4975C11.7013 26.8462 3.1525 18.2975 2.5 7.5C2.49995 6.54349 2.86541 5.62311 3.5216 4.92717C4.1778 4.23124 5.07513 3.81237 6.03 3.75625L6.25 3.75H11.25Z" fill="#10271D"/>
</g>
<defs>
<clipPath id="clip0_2012_420">
<rect width="30" height="30" fill="white"/>
</clipPath>
</defs>
</svg>
