<svg width="60" height="80" viewBox="0 0 60 80" fill="none" xmlns="http://www.w3.org/2000/svg">
<g clip-path="url(#clip0_440_515)">
<path d="M48.1103 52.7192V78.1492C48.1103 79.171 47.2817 80 46.2599 80C45.9246 80 45.5956 79.9086 45.308 79.7361L29.6063 70.315L13.9048 79.7361C13.0285 80.2616 11.8919 79.9774 11.3661 79.1014C11.1935 78.8135 11.1024 78.4845 11.1024 78.1492V52.7192C4.33389 47.2935 0 38.956 0 29.6063C0 13.2552 13.2552 0 29.6063 0C45.9575 0 59.2127 13.2552 59.2127 29.6063C59.2127 38.956 54.8787 47.2935 48.1103 52.7192ZM29.6063 51.8111C41.8696 51.8111 51.8111 41.8696 51.8111 29.6063C51.8111 17.343 41.8696 7.40158 29.6063 7.40158C17.343 7.40158 7.40158 17.343 7.40158 29.6063C7.40158 41.8696 17.343 51.8111 29.6063 51.8111ZM29.6063 44.4095C21.4308 44.4095 14.8032 37.7817 14.8032 29.6063C14.8032 21.4308 21.4308 14.8032 29.6063 14.8032C37.7817 14.8032 44.4095 21.4308 44.4095 29.6063C44.4095 37.7817 37.7817 44.4095 29.6063 44.4095Z" fill="#9FD456"/>
</g>
<defs>
<clipPath id="clip0_440_515">
<rect width="60" height="80" fill="white"/>
</clipPath>
</defs>
</svg>
